<svg width="54" height="16" viewBox="0 0 54 16" fill="none" xmlns="http://www.w3.org/2000/svg">
<path fill-rule="evenodd" clip-rule="evenodd" d="M44.9302 5.89941C44.3301 6.50612 43.6013 6.80947 42.744 6.80947C41.8866 6.80947 41.1562 6.50612 40.5528 5.89941C39.9494 5.29271 39.6476 4.55741 39.6476 3.69352C39.6476 2.84281 39.951 2.11411 40.5578 1.50741C41.1645 0.900703 41.8932 0.597351 42.744 0.597351C43.6013 0.597351 44.3301 0.900703 44.9302 1.50741C45.5304 2.11411 45.8304 2.84281 45.8304 3.69352C45.8304 4.55082 45.5304 5.28611 44.9302 5.89941ZM18.5154 14.9109V0.805081H16.3588L12.9262 3.80233V6.17638L16.2401 3.19892V14.9109H18.5154ZM6.25139 12.8732V8.9659H10.149V7.18536H6.25139V3.27806H4.47075V7.18536H0.563232V8.9659H4.47075V12.8732H6.25139ZM25.937 14.7032C25.6633 14.9736 25.3352 15.1088 24.9527 15.1088C24.5768 15.1088 24.2504 14.9719 23.9734 14.6983C23.6964 14.4246 23.5579 14.0998 23.5579 13.7239C23.5579 13.3414 23.6964 13.0133 23.9734 12.7397C24.2504 12.466 24.5768 12.3292 24.9527 12.3292C25.3352 12.3292 25.6633 12.466 25.937 12.7397C26.2107 13.0133 26.3476 13.3414 26.3476 13.7239C26.3476 14.1064 26.2107 14.4328 25.937 14.7032ZM33.5368 15.0989C34.9876 15.0989 36.1599 14.6554 37.0535 13.7684C37.9471 12.8814 38.3939 11.7159 38.3939 10.2716C38.3939 8.83401 37.9554 7.72777 37.0782 6.9529C36.2011 6.17803 34.8788 5.7906 33.1114 5.7906H31.5682L31.8748 2.87249H37.7509V0.814973H29.8864L29.1544 7.72941H32.7849C34.9942 7.72941 36.0989 8.6032 36.0989 10.3508C36.0989 11.1421 35.8664 11.7801 35.4015 12.2649C34.9365 12.7496 34.2985 12.9919 33.4873 12.9919C32.7816 12.9919 32.1798 12.7875 31.6819 12.3786C31.184 11.9697 30.935 11.3564 30.935 10.5387C30.935 10.3739 30.9581 10.1364 31.0043 9.8265L28.7191 9.96498C28.6862 10.2486 28.6697 10.486 28.6697 10.6772C28.6697 11.5939 28.8972 12.3934 29.3522 13.076C29.8073 13.7585 30.3975 14.2663 31.123 14.5993C31.8484 14.9324 32.653 15.0989 33.5368 15.0989ZM43.8322 14.9208L51.2911 0.785297H49.3126L41.8735 14.9208H43.8322ZM41.6558 4.78657C41.9592 5.08663 42.3219 5.23665 42.744 5.23665C43.1793 5.23665 43.5436 5.08663 43.8371 4.78657C44.1306 4.48652 44.2773 4.12217 44.2773 3.69352C44.2773 3.27146 44.1289 2.91206 43.8322 2.6153C43.5354 2.31854 43.1727 2.17016 42.744 2.17016C42.3219 2.17016 41.9592 2.31689 41.6558 2.61035C41.3524 2.90381 41.2008 3.26487 41.2008 3.69352C41.2008 4.12217 41.3524 4.48652 41.6558 4.78657ZM50.5293 15.0791C51.3801 15.0791 52.1039 14.7757 52.7007 14.169C53.2976 13.5623 53.596 12.8336 53.596 11.9829C53.596 11.1256 53.2959 10.3953 52.6958 9.79188C52.0956 9.18847 51.3735 8.88677 50.5293 8.88677C49.672 8.88677 48.94 9.18847 48.3332 9.79188C47.7265 10.3953 47.4231 11.1256 47.4231 11.9829C47.4231 12.8402 47.7248 13.5706 48.3283 14.174C48.9317 14.7774 49.6654 15.0791 50.5293 15.0791ZM49.4313 13.0661C49.7281 13.3662 50.0941 13.5162 50.5293 13.5162C50.9514 13.5162 51.3141 13.3662 51.6175 13.0661C51.9209 12.766 52.0726 12.405 52.0726 11.9829C52.0726 11.5609 51.9192 11.1982 51.6126 10.8948C51.3059 10.5915 50.9448 10.4398 50.5293 10.4398C50.0941 10.4398 49.7281 10.5882 49.4313 10.8849C49.1345 11.1817 48.9861 11.5477 48.9861 11.9829C48.9861 12.405 49.1345 12.766 49.4313 13.0661Z" fill="white"/>
</svg>
