<svg width="66" height="16" viewBox="0 0 66 16" fill="none" xmlns="http://www.w3.org/2000/svg">
<path fill-rule="evenodd" clip-rule="evenodd" d="M38.695 14.9109V12.8534H32.1857L36.3307 8.56034C36.9967 7.86791 37.4848 7.21834 37.7947 6.61163C38.1047 6.00493 38.2597 5.34217 38.2597 4.62336C38.2597 3.37039 37.8409 2.38449 37.0033 1.66568C36.1658 0.946869 35.0875 0.587463 33.7685 0.587463C32.3638 0.587463 31.2492 0.979842 30.4249 1.7646C29.6005 2.54936 29.1883 3.67374 29.1883 5.13774V5.92909L31.4537 6.14671V5.10806C31.4537 4.19141 31.6614 3.52371 32.0769 3.10495C32.4924 2.6862 33.0596 2.47682 33.7784 2.47682C34.4643 2.47682 35.0084 2.66641 35.4107 3.0456C35.813 3.42479 36.0141 3.95401 36.0141 4.63325C36.0141 5.51033 35.5426 6.43358 34.5995 7.40299L28.9608 13.1897V14.9109H38.695ZM5.86982 15.0989C6.8063 15.0989 7.64716 14.9307 8.39239 14.5944C9.13763 14.2515 9.72952 13.7503 10.1681 13.0908C10.6067 12.4314 10.8259 11.6697 10.8259 10.8058C10.8259 9.9551 10.6083 9.2132 10.173 8.58012C9.73777 7.94704 9.14752 7.46563 8.40229 7.1359C8.92988 6.82596 9.34537 6.42204 9.64874 5.92415C9.9521 5.42625 10.1038 4.87066 10.1038 4.25736C10.1038 3.18903 9.70314 2.3136 8.90186 1.63106C8.10057 0.948518 7.08989 0.607247 5.86982 0.607247C4.62997 0.607247 3.60775 0.946869 2.80316 1.62611C1.99857 2.30536 1.59628 3.18244 1.59628 4.25736C1.59628 4.87066 1.75126 5.42625 2.06123 5.92415C2.37119 6.42204 2.79656 6.82596 3.33735 7.1359C2.57893 7.45904 1.98373 7.93715 1.55176 8.57023C1.11979 9.20331 0.903809 9.9485 0.903809 10.8058C0.903809 11.6697 1.12309 12.4314 1.56166 13.0908C2.00022 13.7503 2.59377 14.2498 3.3423 14.5895C4.09083 14.9291 4.93333 15.0989 5.86982 15.0989ZM5.86982 6.43358C5.26308 6.43358 4.75197 6.23739 4.33649 5.84501C3.92101 5.45263 3.71326 4.96628 3.71326 4.38595C3.71326 3.81882 3.92101 3.34236 4.33649 2.95657C4.75197 2.57079 5.26308 2.3779 5.86982 2.3779C6.46996 2.3779 6.97777 2.57079 7.39326 2.95657C7.80874 3.34236 8.01648 3.81882 8.01648 4.38595C8.01648 4.95969 7.80709 5.44439 7.38831 5.84006C6.96953 6.23574 6.46337 6.43358 5.86982 6.43358ZM3.95068 12.3588C4.4585 12.8139 5.09821 13.0414 5.86982 13.0414C6.62824 13.0414 7.26136 12.8122 7.76917 12.3539C8.27698 11.8956 8.53089 11.2905 8.53089 10.5387C8.53089 9.79353 8.27698 9.19672 7.76917 8.74828C7.26136 8.29985 6.62824 8.07563 5.86982 8.07563C5.09821 8.07563 4.4585 8.29985 3.95068 8.74828C3.44287 9.19672 3.18896 9.79353 3.18896 10.5387C3.18896 11.2971 3.44287 11.9038 3.95068 12.3588ZM16.9467 15.0989C17.8832 15.0989 18.7241 14.9307 19.4693 14.5944C20.2145 14.2515 20.8064 13.7503 21.245 13.0908C21.6836 12.4314 21.9028 11.6697 21.9028 10.8058C21.9028 9.9551 21.6852 9.2132 21.2499 8.58012C20.8147 7.94704 20.2244 7.46563 19.4792 7.1359C20.0068 6.82596 20.4223 6.42204 20.7256 5.92415C21.029 5.42625 21.1807 4.87066 21.1807 4.25736C21.1807 3.18903 20.7801 2.3136 19.9788 1.63106C19.1775 0.948518 18.1668 0.607247 16.9467 0.607247C15.7069 0.607247 14.6847 0.946869 13.8801 1.62611C13.0755 2.30536 12.6732 3.18244 12.6732 4.25736C12.6732 4.87066 12.8282 5.42625 13.1381 5.92415C13.4481 6.42204 13.8735 6.82596 14.4143 7.1359C13.6558 7.45904 13.0606 7.93715 12.6287 8.57023C12.1967 9.20331 11.9807 9.9485 11.9807 10.8058C11.9807 11.6697 12.2 12.4314 12.6386 13.0908C13.0771 13.7503 13.6707 14.2498 14.4192 14.5895C15.1677 14.9291 16.0102 15.0989 16.9467 15.0989ZM15.4134 5.84501C15.8289 6.23739 16.34 6.43358 16.9467 6.43358C17.5403 6.43358 18.0464 6.23574 18.4652 5.84006C18.884 5.44439 19.0934 4.95969 19.0934 4.38595C19.0934 3.81882 18.8856 3.34236 18.4702 2.95657C18.0547 2.57079 17.5469 2.3779 16.9467 2.3779C16.34 2.3779 15.8289 2.57079 15.4134 2.95657C14.9979 3.34236 14.7902 3.81882 14.7902 4.38595C14.7902 4.96628 14.9979 5.45263 15.4134 5.84501ZM16.9467 13.0414C16.1751 13.0414 15.5354 12.8139 15.0276 12.3588C14.5198 11.9038 14.2659 11.2971 14.2659 10.5387C14.2659 9.79353 14.5198 9.19672 15.0276 8.74828C15.5354 8.29985 16.1751 8.07563 16.9467 8.07563C17.7051 8.07563 18.3383 8.29985 18.8461 8.74828C19.3539 9.19672 19.6078 9.79353 19.6078 10.5387C19.6078 11.2905 19.3539 11.8956 18.8461 12.3539C18.3383 12.8122 17.7051 13.0414 16.9467 13.0414ZM26.3666 14.7032C26.093 14.9736 25.7649 15.1088 25.3824 15.1088C25.0064 15.1088 24.68 14.9719 24.403 14.6983C24.126 14.4246 23.9875 14.0998 23.9875 13.7239C23.9875 13.3414 24.126 13.0133 24.403 12.7397C24.68 12.466 25.0064 12.3292 25.3824 12.3292C25.7649 12.3292 26.093 12.466 26.3666 12.7397C26.6403 13.0133 26.7772 13.3414 26.7772 13.7239C26.7772 14.1064 26.6403 14.4328 26.3666 14.7032ZM48.3968 12.1511V14.9109H46.1215V12.1511H39.4936V10.0936L44.9246 0.805085H48.3968V10.1035H50.3357V12.1511H48.3968ZM46.1215 10.1035H41.7095L46.1215 2.26909V10.1035ZM56.4367 5.89942C55.8366 6.50612 55.1078 6.80947 54.2505 6.80947C53.3932 6.80947 52.6628 6.50612 52.0593 5.89942C51.4559 5.29271 51.1542 4.55741 51.1542 3.69352C51.1542 2.84282 51.4575 2.11411 52.0643 1.50741C52.671 0.900707 53.3997 0.597355 54.2505 0.597355C55.1078 0.597355 55.8366 0.900707 56.4367 1.50741C57.0369 2.11411 57.3369 2.84282 57.3369 3.69352C57.3369 4.55082 57.0369 5.28612 56.4367 5.89942ZM55.3387 14.9208L62.7976 0.785301H60.8191L53.38 14.9208H55.3387ZM53.1623 4.78658C53.4657 5.08663 53.8284 5.23666 54.2505 5.23666C54.6858 5.23666 55.0501 5.08663 55.3436 4.78658C55.6371 4.48652 55.7838 4.12217 55.7838 3.69352C55.7838 3.27147 55.6354 2.91206 55.3387 2.6153C55.0419 2.31855 54.6792 2.17017 54.2505 2.17017C53.8284 2.17017 53.4657 2.3169 53.1623 2.61036C52.859 2.90382 52.7073 3.26487 52.7073 3.69352C52.7073 4.12217 52.859 4.48652 53.1623 4.78658ZM62.0359 15.0791C62.8866 15.0791 63.6104 14.7758 64.2073 14.169C64.8041 13.5623 65.1025 12.8336 65.1025 11.9829C65.1025 11.1256 64.8024 10.3953 64.2023 9.79188C63.6022 9.18847 62.88 8.88677 62.0359 8.88677C61.1785 8.88677 60.4465 9.18847 59.8397 9.79188C59.233 10.3953 58.9296 11.1256 58.9296 11.9829C58.9296 12.8402 59.2313 13.5706 59.8348 14.174C60.4382 14.7774 61.1719 15.0791 62.0359 15.0791ZM60.9378 13.0661C61.2346 13.3662 61.6006 13.5162 62.0359 13.5162C62.4579 13.5162 62.8207 13.3662 63.124 13.0661C63.4274 12.766 63.5791 12.405 63.5791 11.9829C63.5791 11.5609 63.4258 11.1982 63.1191 10.8948C62.8124 10.5915 62.4513 10.4398 62.0359 10.4398C61.6006 10.4398 61.2346 10.5882 60.9378 10.8849C60.641 11.1817 60.4926 11.5477 60.4926 11.9829C60.4926 12.405 60.641 12.766 60.9378 13.0661Z" fill="#1E272E"/>
</svg>
