<svg width="137" height="32" viewBox="0 0 137 32" fill="none" xmlns="http://www.w3.org/2000/svg">
<path fill-rule="evenodd" clip-rule="evenodd" d="M117.632 11.3932C116.351 12.6875 114.797 13.3347 112.968 13.3347C111.139 13.3347 109.58 12.6875 108.293 11.3932C107.006 10.0989 106.362 8.53028 106.362 6.68731C106.362 4.87247 107.009 3.31791 108.304 2.0236C109.598 0.729304 111.153 0.0821533 112.968 0.0821533C114.797 0.0821533 116.351 0.729304 117.632 2.0236C118.912 3.31791 119.552 4.87247 119.552 6.68731C119.552 8.51621 118.912 10.0848 117.632 11.3932ZM16.3751 29.9425C14.7852 30.66 12.9914 31.0188 10.9936 31.0188C8.99574 31.0188 7.19839 30.6565 5.60152 29.932C4.00466 29.2074 2.73843 28.1418 1.80282 26.7349C0.867217 25.3281 0.399414 23.7031 0.399414 21.8602C0.399414 20.0313 0.860182 18.4415 1.78172 17.091C2.70326 15.7404 3.97301 14.7204 5.59097 14.0311C4.43729 13.3698 3.52983 12.5081 2.86857 11.446C2.20731 10.3838 1.87669 9.19853 1.87669 7.89016C1.87669 5.597 2.73491 3.72589 4.45136 2.27684C6.16781 0.827783 8.34855 0.103256 10.9936 0.103256C13.5964 0.103256 15.7525 0.8313 17.4619 2.28739C19.1713 3.74348 20.026 5.61107 20.026 7.89016C20.026 9.19853 19.7024 10.3838 19.0553 11.446C18.4081 12.5081 17.5217 13.3698 16.3962 14.0311C17.986 14.7345 19.2452 15.7615 20.1738 17.1121C21.1023 18.4626 21.5666 20.0453 21.5666 21.8602C21.5666 23.7031 21.0988 25.3281 20.1632 26.7349C19.2276 28.1418 17.9649 29.211 16.3751 29.9425ZM7.72247 11.2772C8.60883 12.1142 9.6992 12.5328 10.9936 12.5328C12.2598 12.5328 13.3396 12.1107 14.233 11.2666C15.1264 10.4225 15.5731 9.38846 15.5731 8.1645C15.5731 6.95461 15.1299 5.93816 14.2436 5.11515C13.3572 4.29215 12.2739 3.88064 10.9936 3.88064C9.6992 3.88064 8.60883 4.29215 7.72247 5.11515C6.8361 5.93816 6.39292 6.95461 6.39292 8.1645C6.39292 9.40253 6.8361 10.4401 7.72247 11.2772ZM10.9936 26.6294C9.34747 26.6294 7.98275 26.144 6.89941 25.1733C5.81608 24.2026 5.27441 22.9083 5.27441 21.2904C5.27441 19.7007 5.81608 18.4275 6.89941 17.4708C7.98275 16.5141 9.34747 16.0358 10.9936 16.0358C12.6115 16.0358 13.9622 16.5141 15.0455 17.4708C16.1289 18.4275 16.6705 19.7007 16.6705 21.2904C16.6705 22.8942 16.1289 24.185 15.0455 25.1627C13.9622 26.1405 12.6115 26.6294 10.9936 26.6294ZM42.4595 17.7451L32.7306 30.6178H27.0958L35.1153 20.2986C34.5103 20.4252 33.8772 20.4885 33.216 20.4885C31.5417 20.4885 29.98 20.0946 28.5309 19.3067C27.0818 18.5189 25.8964 17.3618 24.9749 15.8353C24.0534 14.3089 23.5856 12.5609 23.5715 10.5913C23.5574 8.57952 24.0393 6.7682 25.0171 5.15736C25.9949 3.54652 27.3034 2.30849 28.9424 1.44328C30.5815 0.578068 32.3789 0.145462 34.3345 0.145462C36.3323 0.145462 38.1508 0.581585 39.7898 1.45383C41.4289 2.32608 42.7268 3.55355 43.6835 5.13626C44.6402 6.71896 45.1186 8.49511 45.1186 10.4647C45.1186 12.9267 44.2322 15.3535 42.4595 17.7451ZM34.4611 16.8588C32.6602 16.8588 31.1865 16.2926 30.0398 15.1601C28.8932 14.0275 28.3128 12.5398 28.2988 10.6968C28.2847 8.88199 28.8615 7.40832 30.0293 6.2758C31.197 5.14329 32.6743 4.57703 34.4611 4.57703C36.276 4.57703 37.7392 5.12571 38.8507 6.22305C39.9622 7.32039 40.5179 8.79758 40.5179 10.6546C40.5179 12.4132 39.9516 13.8869 38.8191 15.0756C37.6865 16.2644 36.2338 16.8588 34.4611 16.8588ZM54.2249 30.1746C53.641 30.7515 52.9411 31.0399 52.1251 31.0399C51.3231 31.0399 50.6267 30.7479 50.0358 30.1641C49.4449 29.5803 49.1494 28.8874 49.1494 28.0855C49.1494 27.2695 49.4449 26.5696 50.0358 25.9858C50.6267 25.4019 51.3231 25.11 52.1251 25.11C52.9411 25.11 53.641 25.4019 54.2249 25.9858C54.8088 26.5696 55.1007 27.2695 55.1007 28.0855C55.1007 28.9014 54.8088 29.5978 54.2249 30.1746ZM66.3491 30.6178L80.5098 4.38711V0.525311H59.5958V4.89358H75.0439L60.8199 30.6178H66.3491ZM100.727 24.7301V30.6178H95.8734V24.7301H81.7338V20.3408L93.3199 0.525311H100.727V20.3619H104.864V24.7301H100.727ZM95.8734 20.3619H86.4611L95.8734 3.64851V20.3619ZM115.289 30.6389L131.201 0.483105H126.981L111.11 30.6389H115.289ZM110.646 9.01916C111.293 9.65928 112.067 9.97933 112.968 9.97933C113.896 9.97933 114.673 9.65928 115.3 9.01916C115.926 8.37904 116.239 7.60176 116.239 6.68731C116.239 5.78692 115.922 5.02019 115.289 4.38711C114.656 3.75403 113.882 3.43749 112.968 3.43749C112.067 3.43749 111.293 3.75051 110.646 4.37656C109.999 5.00261 109.675 5.77286 109.675 6.68731C109.675 7.60176 109.999 8.37904 110.646 9.01916ZM129.576 30.9766C131.391 30.9766 132.935 30.3294 134.209 29.0351C135.482 27.7408 136.119 26.1862 136.119 24.3714C136.119 22.5425 135.478 20.9844 134.198 19.6971C132.918 18.4099 131.377 17.7662 129.576 17.7662C127.747 17.7662 126.186 18.4099 124.891 19.6971C123.597 20.9844 122.95 22.5425 122.95 24.3714C122.95 26.2003 123.593 27.7584 124.881 29.0457C126.168 30.3329 127.733 30.9766 129.576 30.9766ZM127.234 26.6821C127.867 27.3223 128.648 27.6423 129.576 27.6423C130.477 27.6423 131.251 27.3223 131.898 26.6821C132.545 26.042 132.869 25.2718 132.869 24.3714C132.869 23.471 132.541 22.6972 131.887 22.0501C131.233 21.4029 130.463 21.0794 129.576 21.0794C128.648 21.0794 127.867 21.3959 127.234 22.029C126.601 22.6621 126.284 23.4429 126.284 24.3714C126.284 25.2718 126.601 26.042 127.234 26.6821Z" fill="#343A40"/>
</svg>
